<mxfile host="app.diagrams.net" agent="Mozilla/5.0 (Windows NT 10.0; Win64; x64) AppleWebKit/537.36 (KHTML, like Gecko) Chrome/126.0.0.0 YaBrowser/24.7.0.0 Safari/537.36" version="24.7.14">
  <diagram name="Страница — 1" id="ijv0SsaI0USIAhlNxQQm">
    <mxGraphModel dx="817" dy="762" grid="1" gridSize="10" guides="1" tooltips="1" connect="1" arrows="1" fold="1" page="1" pageScale="1" pageWidth="827" pageHeight="1169" math="0" shadow="0">
      <root>
        <mxCell id="0" />
        <mxCell id="1" parent="0" />
        <mxCell id="gxXUfxGRHGoNPjmWeWPi-1" value="" style="rounded=0;whiteSpace=wrap;html=1;" vertex="1" parent="1">
          <mxGeometry x="40" y="80" width="200" height="200" as="geometry" />
        </mxCell>
        <mxCell id="gxXUfxGRHGoNPjmWeWPi-2" value="Прошивка" style="text;html=1;align=center;verticalAlign=middle;whiteSpace=wrap;rounded=0;" vertex="1" parent="1">
          <mxGeometry x="80" y="165" width="120" height="30" as="geometry" />
        </mxCell>
        <mxCell id="gxXUfxGRHGoNPjmWeWPi-3" value="" style="shape=flexArrow;endArrow=classic;startArrow=classic;html=1;rounded=0;exitX=1.009;exitY=0.199;exitDx=0;exitDy=0;exitPerimeter=0;entryX=0.001;entryY=0.405;entryDx=0;entryDy=0;entryPerimeter=0;width=20;endSize=7.674285714285714;" edge="1" parent="1">
          <mxGeometry width="100" height="100" relative="1" as="geometry">
            <mxPoint x="240.00000000000006" y="179.00000000000006" as="sourcePoint" />
            <mxPoint x="440.20000000000005" y="180" as="targetPoint" />
            <Array as="points">
              <mxPoint x="340" y="179" />
            </Array>
          </mxGeometry>
        </mxCell>
        <mxCell id="gxXUfxGRHGoNPjmWeWPi-4" value="Control Plane" style="edgeLabel;html=1;align=center;verticalAlign=middle;resizable=0;points=[];" vertex="1" connectable="0" parent="gxXUfxGRHGoNPjmWeWPi-3">
          <mxGeometry x="-0.2508" y="1" relative="1" as="geometry">
            <mxPoint x="25" as="offset" />
          </mxGeometry>
        </mxCell>
        <mxCell id="gxXUfxGRHGoNPjmWeWPi-5" value="" style="rounded=0;whiteSpace=wrap;html=1;" vertex="1" parent="1">
          <mxGeometry x="440" y="80" width="200" height="200" as="geometry" />
        </mxCell>
        <mxCell id="gxXUfxGRHGoNPjmWeWPi-6" value="" style="shape=flexArrow;endArrow=classic;startArrow=classic;html=1;rounded=0;exitX=1.009;exitY=0.199;exitDx=0;exitDy=0;exitPerimeter=0;entryX=0.001;entryY=0.405;entryDx=0;entryDy=0;entryPerimeter=0;width=20;endSize=7.674285714285714;" edge="1" parent="1">
          <mxGeometry width="100" height="100" relative="1" as="geometry">
            <mxPoint x="240.00000000000006" y="229.50000000000006" as="sourcePoint" />
            <mxPoint x="440" y="230.5" as="targetPoint" />
            <Array as="points">
              <mxPoint x="340" y="229.5" />
            </Array>
          </mxGeometry>
        </mxCell>
        <mxCell id="gxXUfxGRHGoNPjmWeWPi-7" value="Data Plane" style="edgeLabel;html=1;align=center;verticalAlign=middle;resizable=0;points=[];" vertex="1" connectable="0" parent="gxXUfxGRHGoNPjmWeWPi-6">
          <mxGeometry x="-0.2508" y="1" relative="1" as="geometry">
            <mxPoint x="25" as="offset" />
          </mxGeometry>
        </mxCell>
        <mxCell id="gxXUfxGRHGoNPjmWeWPi-8" value="" style="shape=flexArrow;endArrow=classic;startArrow=classic;html=1;rounded=0;exitX=1.009;exitY=0.199;exitDx=0;exitDy=0;exitPerimeter=0;entryX=0.001;entryY=0.405;entryDx=0;entryDy=0;entryPerimeter=0;width=20;endSize=7.674285714285714;" edge="1" parent="1">
          <mxGeometry width="100" height="100" relative="1" as="geometry">
            <mxPoint x="240.00000000000006" y="130.00000000000006" as="sourcePoint" />
            <mxPoint x="440" y="131" as="targetPoint" />
            <Array as="points">
              <mxPoint x="340" y="130" />
            </Array>
          </mxGeometry>
        </mxCell>
        <mxCell id="gxXUfxGRHGoNPjmWeWPi-9" value="Management Plane" style="edgeLabel;html=1;align=center;verticalAlign=middle;resizable=0;points=[];" vertex="1" connectable="0" parent="gxXUfxGRHGoNPjmWeWPi-8">
          <mxGeometry x="-0.2508" y="1" relative="1" as="geometry">
            <mxPoint x="25" as="offset" />
          </mxGeometry>
        </mxCell>
        <mxCell id="gxXUfxGRHGoNPjmWeWPi-10" value="Контроллер" style="text;html=1;align=center;verticalAlign=middle;whiteSpace=wrap;rounded=0;" vertex="1" parent="1">
          <mxGeometry x="480" y="165" width="120" height="30" as="geometry" />
        </mxCell>
      </root>
    </mxGraphModel>
  </diagram>
</mxfile>
